# xmcd
#
# Track frame offsets:
#	182
#	11625
#	25277
#	36700
#	51052
#	65602
#	81217
#	94917
#	109410
#	124907
#	140277
#	153972
#	167785
#	181527
#	193945
#	205147
#	219315
#	232115
#
# Disc length: 3238 seconds
#
# Revision: 0
# Processed by: cddbd v1.4PL0 Copyright (c) Steve Scherf et al.
# Submitted via: EasyCDDAExtractor 4.5.0.2
#
DISCID=030ca412
DTITLE=Nat King Cole - The Nat King Cole Trio
DYEAR=1900
DGENRE=Blues (Classic Blues)
TTITLE0=Straighten Up And Fly Right
TTITLE1=Gee Baby, Ain't I Good To You
TTITLE2=Jumpin' At Capitol
TTITLE3=If You Can't Smile And Say Yes
TTITLE4=Sweet Lorraine
TTITLE5=Embraceable You
TTITLE6=It's Only A Paper Moon
TTITLE7=I Just Can't See For Lookin'
TTITLE8=The Man I Love
TTITLE9=Body And Soul
TTITLE10=Prelude In C Sharp Minor
TTITLE11=What Is This Thing Called Love
TTITLE12=Vom, Vim, Veedle
TTITLE13=Let's Spring One
TTITLE14=Beautiful Moons Ago
TTITLE15=FTS (Fine, Sweet, Tasty)
TTITLE16=This Side Up
TTITLE17=Babs
EXTD=
EXTT0=
EXTT1=
EXTT2=
EXTT3=
EXTT4=
EXTT5=
EXTT6=
EXTT7=
EXTT8=
EXTT9=
EXTT10=
EXTT11=
EXTT12=
EXTT13=
EXTT14=
EXTT15=
EXTT16=
EXTT17=
PLAYORDER=
